<svg xmlns="http://www.w3.org/2000/svg" width="256" height="256"><path fill="#1976D2" fill-opacity=".208" fill-rule="evenodd" d="M0 128.004v128.004l128.25-.254 128.25-.254.254-127.75L257.008 0H0v128.004m.485.496c0 70.4.119 99.053.265 63.672.146-35.38.146-92.98 0-128C.604 29.153.485 58.1.485 128.5"/><path fill="#1976D2" fill-opacity=".233" fill-rule="evenodd" d="M0 33.573v33.572l2.723-2.142c2.061-1.621 3.522-1.992 6.007-1.526 4.249.797 18.254-1.124 22.069-3.027 1.894-.945 5.222-1.381 9.246-1.213 4.428.185 6.414-.118 6.716-1.024.88-2.632 5.346-7.04 10.957-10.814 3.18-2.139 8.257-6.102 11.282-8.807 3.025-2.706 8.425-6.217 12-7.804 3.575-1.586 8.75-3.964 11.5-5.285 10.26-4.927 22.418-7.193 28.934-5.394 3.224.891 3.444 1.156 2.085 2.515-1.897 1.897-1.913 1.683.472 6.358 1.103 2.162 1.699 4.662 1.337 5.605-.409 1.068.024 2.197 1.163 3.03 1.649 1.206 1.664 1.386.168 1.96-.906.348-1.428.988-1.159 1.423.269.435-.119 1.023-.86 1.308-1.024.393-1.169 1.685-.603 5.355.411 2.66.668 4.927.572 5.037-.096.11-1.96.415-4.142.678-2.182.264-4.192.563-4.467.666-.275.102-1.287.106-2.25.008-.963-.098-1.75.312-1.75.911 0 .708-.962.597-2.75-.317-1.952-.998-3.475-1.132-5.25-.461-1.375.519-5.988.802-10.25.629-5.88-.238-7.75.002-7.75.995 0 .72-.494 1.004-1.097.631-.604-.373-4.767-.624-9.25-.557-7.184.107-8.396.397-10.199 2.438-1.125 1.273-2.508 2.161-3.073 1.973-.565-.189-3.006 2.005-5.425 4.874-2.419 2.869-3.624 4.919-2.677 4.555.946-.363 1.721-.224 1.721.308 0 .533-.52.969-1.155.969-.71 0-.545.674.429 1.75 1.458 1.612 1.352 2.026-1.354 5.25-1.616 1.925-2.661 2.713-2.322 1.75.339-.963.14-1.75-.441-1.75-.582 0-1.516.787-2.077 1.75-.891 1.53-1.028 1.435-1.086-.75l-.066-2.5-1.999 2.5c-1.1 1.375-3.561 4.645-5.47 7.266l-3.47 4.765 3.506-1.464C43.518 88.303 44 88.299 44 89.532c0 .786-1.087 1.703-2.415 2.036-1.4.351-2.924 1.837-3.628 3.535-1.067 2.577-1.356 2.734-2.401 1.305-1.016-1.39-1.675-.672-4.576 4.984-1.864 3.634-3.704 6.608-4.088 6.608-.383 0-2.361 2.506-4.393 5.568-4.511 6.795-5.604 6.509-1.936-.506 1.479-2.829 2.422-5.411 2.095-5.737-.924-.924-6.635 1.76-7.58 3.562-.465.887-1.166 3.545-1.557 5.905-.779 4.703-5.749 11.266-7 9.243-.5-.811-1.089-.641-1.972.568-.755 1.031-1.919 1.469-2.904 1.091C.27 127.166 0 127.795 0 131.531c0 4.783 1.217 5.6 4.908 3.294 2.264-1.413 8.192-.026 8.894 2.081.35 1.05-.201 1.211-2.327.677-3.19-.801-4.436.475-4.46 4.564L7 144.795l14.582-.343c8.99-.212 15.111-.783 15.962-1.489 1.94-1.609 5.086-10.479 5.934-16.729.76-5.608 2.306-7.234 6.874-7.234 1.367 0 3.197-.273 4.068-.608 2.173-.834 7.805-9.364 7.208-10.919-.266-.693.525-2.208 1.759-3.367 2.328-2.187 4.19-2.849 3.113-1.106-.34.55-.157 1 .406 1 1.236 0 3.604-4.05 3.289-5.625-.42-2.099 4.876-4.495 10.613-4.802 3.131-.168 7.492-.77 9.692-1.339 2.2-.568 5.343-1.339 6.984-1.711l2.983-.678-2.483 1.907c-1.366 1.049-3.271 2.195-4.234 2.546-1.935.707-2.296 2.247-.75 3.202 1.642 1.015 1.141 4.052-1.15 6.963-1.63 2.073-1.846 2.921-.893 3.51.858.531 1.028 1.847.534 4.152-1.024 4.784-2.223 5.875-6.458 5.875-2.487 0-4.341.683-5.584 2.057-1.266 1.398-2.589 1.874-4.133 1.486-2.072-.52-2.218-.305-1.666 2.455.515 2.577.056 3.543-3.094 6.514-6.277 5.92-6.203 6.295-3.998-20.012.583-6.961-.924-5.668-1.988 1.706-.374 2.588-1.387 6.124-2.251 7.856-1.28 2.567-1.363 3.848-.447 6.907.619 2.065.91 6.63.646 10.143-.393 5.239-.933 6.785-3.002 8.593-2.722 2.379-2.927 2.423-21.354 4.591-8.232.969-12.856 1.969-13.892 3.005-1.404 1.404-1.23 1.848 1.811 4.626 1.851 1.69 2.737 3.073 1.971 3.073-.767 0-2.177.708-3.133 1.573-1.376 1.245-1.552 2.22-.846 4.682 1.193 4.16 1.776 4.622 7.838 6.222 7.147 1.885 7.717.083 2.088-6.594-2.336-2.769-3.853-5.36-3.373-5.757 2.819-2.33 11.613-4.245 16.901-3.681 5.968.636 13.85-1.173 20.223-4.642 1.788-.973 3.25-1.327 3.25-.787 0 .541 1.462.904 3.25.808 1.787-.095 6.063.355 9.5 1.001 3.438.646 8.978 1.648 12.312 2.227 3.335.579 7.525 1.873 9.312 2.877 1.787 1.004 5.021 2.032 7.187 2.286 2.167.254 4.805.837 5.863 1.297 1.514.657 1.796.503 1.324-.725-.446-1.163-.108-1.432 1.327-1.057 1.059.277 1.925.097 1.925-.401 0-.497-.967-.976-2.149-1.065-1.182-.089-2.597-.61-3.144-1.157-.66-.66-.277-.807 1.137-.438 1.413.37 2.34.014 2.751-1.056.34-.887 1.047-1.613 1.571-1.613s.674.45.334 1c-.776 1.255.117 1.257 4.466.01 3.388-.972 6.348.06 4.121 1.436-.598.37-1.087.088-1.087-.627 0-.714-1.143-.066-2.54 1.441-1.398 1.507-3.048 2.74-3.667 2.74-.62 0-.809.317-.422.704 1.67 1.67 5.811 1.134 12.154-1.572 7.786-3.322 11.644-2.955 14.84 1.409 1.664 2.271 2.334 2.477 6.178 1.9 3.696-.554 4.499-.346 5.625 1.456 1.281 2.051 3.832 2.911 3.832 1.292 0-1.27-3.948-5.189-5.228-5.189-.632 0-.164-.918 1.039-2.039 1.204-1.121 2.189-2.52 2.189-3.107 0-.587.675-.809 1.5-.492 1.051.403 1.509-.088 1.53-1.643.027-1.937.156-2.005 1.016-.529.678 1.162.549 2.957-.413 5.75-.77 2.233-1.114 4.055-.766 4.049 2.922-.05 10.86-3.568 16.633-7.373 5.604-3.692 7.898-4.626 11.5-4.684 3.791-.061 10.29-1.647 7.628-1.862-1.405-.113 1.479-3.07 2.994-3.07.758 0 1.378.81 1.378 1.8 0 2.723 2.028 4.2 5.766 4.2 1.851 0 4.348.549 5.55 1.22 3.949 2.207 8.694 3.573 9.254 2.666.302-.487 1.191-.886 1.978-.886 1.635 0 1.669 5.065.041 6.184-1.186.816-6.692-.086-8.039-1.316-1.472-1.345-2.929-1.036-1.803.382.546.688 1.29 2.902 1.653 4.922.558 3.098.309 3.918-1.592 5.25-1.239.868-3.095 1.578-4.125 1.578-3.139 0-23.051 7.105-25.183 8.986-1.1.97-2.9 2.218-4 2.772-3.563 1.797-18.335 5.242-22.474 5.242-5.128 0-5.166 1.389-.187 6.945 3.653 4.077 4.038 4.252 7.911 3.597 4.821-.814 7.045-2.99 7.019-6.867-.01-1.554.432-3.276.984-3.828 4.567-4.567 32.481-4.885 36.194-.411.747.901-.469 1.082-5.046.75-5.487-.396-6.284-.193-8.844 2.259-1.753 1.68-3.088 4.269-3.544 6.875-.708 4.041-.748 6.009-.263 12.93.125 1.787-.084 4.666-.466 6.397-.631 2.867-.342 3.38 3.24 5.75 10.38 6.87 14.849-1.08 5.765-10.255-4.485-4.53-4.452-3.631-.443-12.071.635-1.336 2.392-2.759 3.904-3.163 3.031-.81 3.2-.617 1.781 2.034-1.141 2.132 1.55 8.464 4.877 11.475 1.151 1.041 2.092 2.947 2.092 4.235 0 2.851 11.815 15.411 14.615 15.536 1.037.046 4.698-.26 8.135-.681 3.437-.421 6.25-.399 6.25.049s-1.013 1.92-2.25 3.27l-2.25 2.455 5.274-.596c2.9-.328 5.713-.868 6.25-1.2.577-.357.899-6.602.787-15.294-.104-8.08-.351-12.123-.549-8.985l-.359 5.706-3.157-1.921c-4.513-2.744-6.45-7.019-5.788-12.773l.542-4.718 4.171-.304c3.981-.289 4.194-.472 4.677-4 .575-4.204.464-34.631-.116-31.946-.462 2.136-1.009 2.159-5.61.237-2.665-1.114-3.622-2.118-3.622-3.8 0-1.258-.54-2.827-1.2-3.487-2.006-2.006.785-3.717 5.749-3.525l4.451.172.003-7.173c.002-3.946.251-37.661.553-74.924L257.105 0H0v33.573M.448 34c0 18.425.135 25.963.3 16.75.165-9.213.165-24.287 0-33.5-.165-9.213-.3-1.675-.3 16.75M163.5 13c-.34.55-.168 1 .382 1s1.278-.45 1.618-1c.34-.55.168-1-.382-1s-1.278.45-1.618 1m32.25.735c-2.613.206-4.75.707-4.75 1.114 0 1.253 11.391 3.342 14.276 2.618 1.498-.376 2.724-.995 2.724-1.375 0-1.571-2.566-3.08-4.95-2.912-1.402.099-4.687.349-7.3.555m-41.475 1.627c-7.08 1.542-8.734 3.316-7.445 7.983 1.075 3.895.55 7.655-1.069 7.655-.568 0-.464.653.239 1.5.685.825.949 1.5.587 1.5-.361 0-.201.853.357 1.896.859 1.604.498 2.141-2.345 3.49-3.649 1.732-4.808 4.318-3.922 8.751.357 1.781-.037 3.763-1.054 5.316C137.775 56.273 137.539 58 139 58c.55 0 1-.6 1-1.333 0-.86 1.255-1.334 3.532-1.334 3.039 0 3.759.479 5.156 3.423.894 1.882 2.454 3.94 3.468 4.574 1.014.633 1.844 1.718 1.844 2.411 0 1.524-.051 1.521 3.79.182 2.035-.709 2.902-1.562 2.542-2.5-.338-.88.09-1.423 1.12-1.423.916 0 1.41-.414 1.098-.919-.313-.506.034-1.523.771-2.259.737-.737 1.172-1.843.967-2.458-.205-.615.34-1.391 1.21-1.725.945-.362 1.518-.11 1.424.627-.286 2.226.064 3.734.867 3.734.435 0 .772-1.225.75-2.723-.047-3.264 3.16-4.409 5.062-1.808 1.156 1.581 1.393 1.581 3.816-.007 1.532-1.003 2.542-2.561 2.483-3.827-.09-1.927-.177-1.892-.9.365-.849 2.652-1.155 2.176-1.425-2.218-.171-2.778.668-2.941 6.233-1.208 1.623.506 9.192-3.262 9.192-4.575 0-.529 1.222-1.268 2.716-1.643 2.696-.676 3.719-1.312 7.272-4.523 1.015-.916 2.18-1.366 2.588-1 .408.367.457-.127.109-1.098-.358-.997.254-3.346 1.408-5.4 1.632-2.907 1.777-3.801.724-4.469-2.318-1.47-8.346-1.401-17.638.203-7.126 1.23-10.074.714-8.279-1.448.852-1.027.743-1.672-.449-2.662-1.878-1.559-9.357 0-15.951 3.326-2.2 1.109-5.845 2.156-8.1 2.327-3.908.295-4.092.182-3.907-2.401.268-3.747.063-3.465 4.507-6.211 6.468-3.998 5.539-4.655-3.725-2.638m-16.2 4.933c-1.884.663-3.589 1.708-3.789 2.322-.336 1.031 5.041 2.891 7.122 2.464.5-.103 1.283.4 1.74 1.116.558.873.788.478.699-1.197-.073-1.375.044-3.148.26-3.941.527-1.931-1.859-2.233-6.032-.764m97.705 5.696c-4.176 2.713-4.508 4.837-1.027 6.573 1.229.613 1.938 1.412 1.574 1.775-.363.364-.135.661.506.661.642 0 1.167.845 1.167 1.878 0 1.032.695 2.454 1.546 3.16.85.705 1.314 1.885 1.031 2.622-.283.737-.061 1.34.494 1.34.566 0 .471.575-.219 1.313-1.007 1.078-1.537 1.002-2.967-.428-4.6-4.6-25.885-3.162-25.885 1.749 0 .633-.675 1.411-1.5 1.728-2.124.815-1.864 2.638.378 2.638 1.032 0 2.462.705 3.178 1.567 1.054 1.27 2.828 1.471 9.372 1.06 4.44-.279 9.069-.534 10.287-.567 1.219-.033 3.694-1.334 5.5-2.891 1.807-1.557 4.115-3.135 5.13-3.505 1.015-.371 2.08-1.572 2.367-2.669.287-1.097.971-1.995 1.521-1.995.55 0 .766-.896.479-1.992-.35-1.338.35-2.752 2.134-4.309 3.419-2.985 5.154-6.052 5.154-9.109 0-2.359-.266-2.448-8.193-2.764-7.344-.292-8.589-.068-12.027 2.165m-86.27 1.025c.346.559 1.047.758 1.559.441 1.387-.857 1.129-1.457-.628-1.457-.857 0-1.276.457-.931 1.016m81.966 8.059c-.362 1.142-.414 2.32-.115 2.619.878.878 3.827-2.581 3.144-3.686-1.006-1.627-2.321-1.164-3.029 1.067m-54.035 1.402c2.346 1.841 4.883 2.001 4.315.273-.226-.687-1.726-1.373-3.333-1.523-2.788-.26-2.834-.202-.982 1.25m-2.401 2.975c-.663.799-1.055 2.181-.873 3.073.242 1.179.826.783 2.14-1.452 1.835-3.121.934-4.274-1.267-1.621m-43.581 13.615c-.363.586-.445 1.281-.183 1.543s.743-.218 1.069-1.067c.676-1.762.1-2.072-.886-.476m16.62 10.516c.048 1.165.285 1.402.604.605.289-.722.253-1.585-.079-1.917-.332-.332-.568.258-.525 1.312M64 64.059c0 .582.45.781 1 .441s1-.816 1-1.059S65.55 63 65 63s-1 .477-1 1.059m19.525-.099c-.848 1.372-.097 2.402 1.38 1.894.606-.208.683-.914.188-1.711-.625-1.006-1.03-1.053-1.568-.183m-57.096 3.364c-.896 2.335.035 3.21 3.715 3.49 1.813.138 4.268 1.164 5.454 2.278l2.158 2.027 3.122-3.787c3.699-4.488 3.934-5.749.872-4.684-2.671.929-5.895.886-10.982-.146-2.956-.6-3.859-.429-4.339.822M2.607 79.582c-.334.87-.607 2.879-.607 4.465 0 3.792 2.913 5.343 8.472 4.509 3.239-.485 4.517-1.236 5.398-3.171 1.405-3.084.741-4.385-2.238-4.385-1.237 0-3.123-.661-4.191-1.468-2.573-1.946-6.078-1.921-6.834.05m6.765 21.783c-.62.709-1.431 2.379-1.801 3.712-.661 2.374-.641 2.382.95.423 2.349-2.891 3.673-5.506 2.764-5.462-.432.021-1.292.618-1.913 1.327M8.638 112.5c.317.825.753 1.5.969 1.5.216 0 .393-.675.393-1.5s-.436-1.5-.969-1.5c-.532 0-.709.675-.393 1.5m-8.352 19c.008 2.75.202 3.756.432 2.236.229-1.52.223-3.77-.014-5-.237-1.23-.425.014-.418 2.764m43.533 6.445c-2.289 1.854-2.291 1.876-.35 4.021 1.664 1.838 1.736 2.292.491 3.08-1.106.7-.814.927 1.208.939 1.468.008 3.458.318 4.424.689 1.353.519 1.608.29 1.113-1-.405-1.055-.144-1.674.705-1.674 1.396 0 4.261-5.662 3.335-6.589-.289-.288-2.347-.706-4.574-.927-2.911-.29-4.697.121-6.352 1.461M19 137.956l-3.5.693 2.717.775c1.494.427 2.619 1.294 2.5 1.926-.12.633 1.068 1.297 2.639 1.477 1.651.188 2.606-.08 2.261-.637-.327-.53.07-1.515.883-2.19 3.197-2.654-.007-3.527-7.5-2.044m38.667-.289C56.409 138.925 57 142 58.5 142c.933 0 1.5-.944 1.5-2.5 0-2.428-.974-3.193-2.333-1.833m20.218 5.083c-.064.412-.178 1.2-.255 1.75-.301 2.16-2.781 5.524-3.669 4.976-.516-.319-.686.077-.378.879.463 1.208 1.123 1.089 3.848-.698 1.809-1.186 2.853-2.438 2.322-2.782-.532-.344-.664-1.581-.293-2.75.4-1.261.241-2.125-.393-2.125-.587 0-1.119.338-1.182.75m69.359 9.914c-.691.279-1.014.899-.718 1.378.648 1.048 3.474.114 3.474-1.149 0-.963-.775-1.027-2.756-.229m-37.994 6.025c.963.252 2.537.252 3.5 0 .963-.251.175-.457-1.75-.457s-2.713.206-1.75.457M1 165.5c0 3.308.392 4.5 1.481 4.5 1.986 0 2.963-4.302 1.569-6.907C2.235 159.703 1 160.678 1 165.5m90.513 10.139c.293 2.328-.242 6.022-1.348 9.306-1.437 4.268-2.427 5.642-4.58 6.36-2.325.775-3.191.489-5.655-1.872-1.6-1.533-3.17-2.526-3.489-2.207-.856.856 1.667 8.619 3.221 9.908.836.695 1.338 3.289 1.338 6.921 0 4.999-.289 5.902-2.072 6.468-3.538 1.123-6.539-.317-12.213-5.856-4.808-4.695-6.244-5.496-11.843-6.615-5.219-1.042-6.936-1.912-9.491-4.804-2.565-2.905-3.58-3.415-5.721-2.878-3.597.903-5.086 3.97-3.765 7.758.913 2.619.83 2.921-.677 2.456-.945-.292-3.403-.733-5.462-.981-3.357-.404-3.645-.264-2.783 1.347.711 1.328.514 2.17-.755 3.222-3.331 2.759-9.839 6.828-10.922 6.828-.604 0-3.505-1.121-6.447-2.49-2.942-1.37-5.911-2.495-6.599-2.5-.943-.008-1.25 3.554-1.25 14.502v14.512l3.75-.48c2.063-.264 5.944-.756 8.626-1.092 5.554-.697 9.624-3.967 9.624-7.732 0-1.304 1.012-3.293 2.25-4.419 3.201-2.914 13.402-7.039 19.066-7.71 4.214-.5 5.245-.228 8.25 2.169 3.676 2.933 4.118 4.644 2.257 8.73-1.541 3.382-.294 4.517 8.177 7.438 7.637 2.633 17 8.638 17 10.903 0 .874-2.025 3.447-4.5 5.719-8.058 7.398-7.914 7.453 19.75 7.432l24.25-.018 7.743-4.512c7.217-4.205 7.82-4.818 8.875-9.008 1.235-4.902 4.755-8.444 8.392-8.444 5.901 0 8.711-1.284 10.103-4.615 3.511-8.405 1.058-11.22-9.825-11.275-6.224-.031-8.679-.528-12.717-2.574-2.753-1.395-5.694-2.536-6.538-2.536-1.899 0-1.899-.932-.001-3.441 3.471-4.589-.127-10.983-8.782-15.605-3.162-1.689-5.73-3.382-5.705-3.763.025-.38 1.097-2.701 2.381-5.159l2.337-4.467-2.081-4.283c-2.316-4.767-3.172-5.056-7.549-2.543-2.661 1.527-3.432 1.574-6.331.385-1.816-.744-4.533-1.576-6.038-1.85-2.656-.482-2.722-.384-2.251 3.365m54.675 3.424c.24.721 1.028 1.509 1.75 1.75.75.25 1.125-.125.875-.875-.241-.722-1.029-1.51-1.75-1.75-.75-.25-1.125.125-.875.875M1 186.723v5.89l7.084 1.701c3.897.935 7.536 1.421 8.087 1.08.867-.536-11.997-13.313-14.323-14.227-.466-.184-.848 2.317-.848 5.556m51-2.805c0 1.616 1.189 4.082 1.968 4.082.415 0 .54-1.125.277-2.5-.447-2.338-2.245-3.605-2.245-1.582m46.464 20.141c-.396.641-.1 1.557.658 2.037 2.114 1.339 3.057 1.073 2.701-.763-.402-2.075-2.397-2.832-3.359-1.274m126.929 5.115c-.661 1.069 1.955 2.099 4.216 1.661.949-.184 1.888-.823 2.086-1.418.423-1.271-5.525-1.501-6.302-.243m-45.768 13.535c-.39.389-2.793.952-5.34 1.25-4.265.498-4.818.894-6.985 4.999-2.725 5.162-2.576 6.058 1.329 8.009 1.579.788 4.292 2.742 6.029 4.34 3.091 2.845 3.181 2.863 4.25.865.6-1.122 1.092-2.712 1.092-3.534 0-.821 1.163-2.407 2.584-3.525 1.421-1.118 2.311-2.474 1.978-3.012-.333-.539.299-.912 1.404-.829 1.5.113 2.475 1.553 3.851 5.69 2.344 7.043 5.585 9.315 9.568 6.705 3.168-2.076 3.253-3.471.495-8.146-1.647-2.791-3.133-3.864-6.659-4.807-2.975-.796-4.71-1.868-5.035-3.112-.481-1.837-.54-1.838-1.841-.059-1.153 1.576-1.345 1.607-1.345.216 0-.894.9-1.91 2-2.259 2.926-.929 2.444-2.161-1.125-2.875-4.031-.806-5.379-.788-6.25.084m-144.14 15.465c-1.103 1.279-2.847 3.989-3.874 6.023-1.028 2.033-2.936 4.699-4.24 5.924-1.304 1.225-2.371 3.049-2.371 4.053 0 5.162 34.759-1.117 35.812-6.469.171-.873-.443-2.738-1.365-4.146-1.381-2.107-2.458-2.559-6.103-2.559-2.839 0-5.396-.712-7.134-1.986-4.439-3.255-8.376-3.563-10.725-.84m210.677 14.596c-2.014 1.354-3.849 2.634-4.079 2.846-.229.211 2.809.384 6.75.384H256v-2.933c0-2.63-.319-2.924-3.088-2.845-1.699.048-4.737 1.195-6.75 2.548"/><path fill="#1976D2" fill-opacity=".477" fill-rule="evenodd" d="M0 30.622c0 28.229.128 30.517 1.635 29.266 1.102-.914 4.768-1.393 11.25-1.469 5.773-.067 11.785-.772 15.047-1.765C30.919 55.744 35.647 55 38.438 55c7.368 0 10.654-1.237 16.99-6.399C58.536 46.071 61.402 44 61.799 44c.396 0 3.191-2.314 6.211-5.141 3.333-3.122 8.436-6.485 12.99-8.561 4.125-1.881 9.3-4.274 11.5-5.318 11.538-5.478 25.113-7.438 31.872-4.604 7.499 3.145 11.315 1.506 9.69-4.16-.932-3.251-.407-7.216.956-7.216.431 0 1.714 1.575 2.849 3.5 2.45 4.151 3.972 4.365 7.133 1 2.673-2.846 7.369-3.292 10.412-.99 2.265 1.714 6.129.995 8.993-1.673 2.587-2.41 3.257-2.319 3.975.541.697 2.775 6.105 4.51 16.571 5.315 5.861.451 6.328.349 5.108-1.122-2.026-2.441-.649-3.029 8.003-3.422 7.315-.332 8.31-.13 13.354 2.717l5.451 3.076 1.491-5.087c.82-2.797 1.295-5.596 1.055-6.22-.269-.703-3.209-1.135-7.716-1.135-5.991 0-8.22-.487-12.581-2.75L193.815 0H0v30.622M225 1.427c0 1.598 4.145 5.167 7.082 6.099 2.775.881 2.367 4.377-.861 7.385-1.529 1.424-3.249 3.939-3.822 5.589-.574 1.65-1.589 2.882-2.256 2.738a66.92 66.92 0 0 0-3.133-.554c-1.057-.161-2.728-.998-3.715-1.858-.987-.861-2.386-1.352-3.108-1.091-.723.261-1.878-.298-2.567-1.24-1.135-1.552-1.715-1.584-6.107-.344-2.67.754-5.019 1.867-5.221 2.473-.548 1.645 9.83 3.265 12.755 1.992 1.161-.506 1.503-.106 1.373 1.605-.306 4.014-1.486 6.333-3.726 7.318-7.325 3.225 2.307 9.175 11.056 6.831 1.515-.406 2.25-1.363 2.25-2.928 0-1.278.52-2.645 1.155-3.037.715-.443.883-.275.44.44-.972 1.574.498 1.4 2.78-.329 1.083-.82 1.625-2.074 1.282-2.968-.345-.898-.059-1.548.68-1.548.701 0 2.799-1.125 4.663-2.5 2.791-2.059 4.528-2.5 9.849-2.5 6.196 0 6.393-.075 4.806-1.829-2.478-2.737-2.033-3.333 1.931-2.589 3.355.629 3.565.519 3.25-1.705-.263-1.862-1.091-2.485-3.825-2.877-2.391-.343-3.602-1.096-3.851-2.394-.323-1.691.078-1.824 3.739-1.238l4.101.656V0h-15.5C227.739 0 225 .252 225 1.427M79 3.821c0 .574-.9 1.33-2 1.679-2.012.639-2.968 5.5-1.082 5.5 1.953 0 4.045-1.252 3.517-2.105-1.236-1.999.916-.719 2.785 1.658 1.104 1.404 2.253 2.308 2.552 2.008.299-.299 1.148-.042 1.886.57.993.824 1.732.79 2.842-.131 2.251-1.868 1.82-5.56-.854-7.312C85.601 3.693 79 2.415 79 3.821M193 18c0 .55 1.912.955 4.25.9 3.61-.084 3.874-.22 1.75-.9-3.599-1.153-6-1.153-6 0m-32.927 2.412c-1.112 1.34-1.064 1.588.305 1.588.892 0 1.658.788 1.701 1.75.043.962.281 1.261.529.664.247-.597.074-2.099-.384-3.338-.746-2.017-.97-2.087-2.151-.664M226 26.583c0 1.766 2.153 1.459 2.771-.395.218-.654-.317-1.188-1.188-1.188-.87 0-1.583.712-1.583 1.583m-96 3.04c0 1.933 3.545 6.192 4.401 5.288.214-.226-.689-1.973-2.006-3.883-1.968-2.852-2.395-3.103-2.395-1.405M134.5 38c.34.55.816 1 1.059 1s.441-.45.441-1-.477-1-1.059-1-.781.45-.441 1m111.954 9.456c-1.553 2.883-1.617 3.737-.484 6.471.717 1.732 2.255 3.654 3.417 4.27 2.132 1.131 4.541 3.946 5.793 6.769.374.844.711-2.884.75-8.283.067-9.378-.02-9.789-1.93-9.183-1.1.349-2 .263-2-.192s-.845-1.355-1.879-2c-1.631-1.019-2.114-.736-3.667 2.148M196 49.241c0 2.473-2.138 3.291-3.551 1.359-.851-1.165-1.375-1.322-1.651-.495-.222.666-1.834 1.17-3.583 1.12-5.272-.15-5.13 2.192.285 4.711 4.304 2.003 5.671 2.157 8.629.973 2.055-.822 2.598-1.685 2.484-3.947-.16-3.185-2.613-6.678-2.613-3.721m22.5 8.484c-5.5.169-10.675.598-11.5.954-.825.357-1.912.687-2.417.735-.504.047-1.09.607-1.302 1.244-.239.717 2.381 1.787 6.889 2.813 4.002.91 7.851 2.131 8.553 2.714 1.951 1.62 1.516 5.76-1.225 11.647-2.51 5.393-7.461 12.479-6.132 8.777 1.154-3.213-1.888-6.609-5.92-6.609-2.227 0-3.723.559-4.096 1.53-.341.889-1.294 1.305-2.276.994-1.112-.353-2.472.524-3.984 2.568-1.666 2.253-2.595 2.803-3.392 2.006-.797-.797-.782-1.414.055-2.251 1.427-1.427-.193-4.954-2.018-4.393-.679.208-2.445.643-3.924.966-2.57.562-2.627.706-1.287 3.289.901 1.736 1.24 4.592.951 7.996-.248 2.912-.076 5.295.382 5.295 1.508 0 4.353-3.851 3.667-4.962-.37-.598-.249-.964.269-.813.519.151 1.903-.85 3.076-2.225l2.134-2.5-1.394 2.819c-.766 1.551-2.646 6.827-4.178 11.726-2.081 6.657-3.089 8.654-3.991 7.905-.841-.698-1.384-.539-1.792.524-.322.84-1.112 1.526-1.756 1.526-1.412 0-3.816 2.991-3.86 4.802-.018.715 1.032.153 2.333-1.25 3.836-4.14 5.028-3.372 4.184 2.698-.401 2.888-.689 6.328-.638 7.646.05 1.318-.377 2.96-.948 3.648-1.231 1.484-1.807 4.036-2.585 11.456-.942 8.985-.852 9.46 2.189 11.452 3.196 2.094 5.433.654 5.433-3.498 0-2.789.013-2.794 3.055-1.276 3.424 1.707 8.741 1.145 13.011-1.377 2.402-1.418 2.96-1.317 8.691 1.576 9.446 4.769 13.533 5.895 19.425 5.354 2.925-.268 4.987-.137 4.583.292-.908.964 2.738 2.928 7.029 3.786 3.723.744 4.111-.404 1.141-3.374-2.39-2.39-2.614-.727 3.572-26.435 4.265-17.721 5.289-24.301 5.894-37.85.445-9.982-.35-12.808-3.927-13.953-1.636-.523-3.903-1.794-5.038-2.824-2.928-2.656-4.746-2.329-6.276 1.127-.73 1.65-2.077 3.007-2.994 3.015-1.182.011-1.309.242-.438.796.893.567.652 1.176-.885 2.234-1.163.8-3.29 3.278-4.728 5.507l-2.615 4.052.061-8.818c.051-7.292-.252-9.101-1.75-10.457C223.856 68.56 223.376 66 225 66c.55 0 1 .675 1 1.5 0 1.186.403 1.097 1.926-.426 1.196-1.196 2.711-1.72 4-1.383 1.718.449 2.074.082 2.074-2.14 0-3.694-1.73-6.593-3.785-6.342-.943.115-6.215.348-11.715.516M72.571 60.571c-.864.865-1.571 2.038-1.571 2.607 0 .57-.652.786-1.449.48-.998-.383-1.265-.076-.857.986.45 1.172 1.455 1.389 4.199.903 1.984-.351 4.766-.768 6.184-.926 5.454-.611 6.012-2.876 1.163-4.72-1.714-.652-2.91-.631-3.603.062-.716.716-.511 1.037.663 1.037.935 0 1.7.45 1.7 1s-.9 1-2 1c-1.79 0-2.468-1.039-2.118-3.25.184-1.169-.598-.891-2.311.821m14.318.179c-.062.413-.245 2.325-.408 4.25-.354 4.172-.881 6.877-1.802 9.25-1.439 3.709-1.56 4.706-.635 5.277.526.325.956 2.553.956 4.95 0 8.307.896 8.722 12.178 5.641 3.673-1.004 7.197-1.504 7.831-1.112.672.415-.166.975-2.009 1.344-1.739.348-4.311 1.536-5.716 2.641C95.879 94.096 94.046 95 93.21 95c-1.244 0-1.178.377.362 2.079 1.846 2.04 1.839 2.153-.345 5.948-2.173 3.775-3.155 6.957-1.227 3.973.826-1.278.972-1.237.985.275.008.976 1.046 2.166 2.306 2.646 4.672 1.776 4.97 3.48 1.192 6.825-2.084 1.845-3.489 4.021-3.498 5.419-.008 1.284-1.123 5.902-2.477 10.261-3.026 9.742-2.587 10.54 5.864 10.663l6.128.09-4.924 1.351c-4.581 1.257-12.763 7.616-11.468 8.912.28.279 2.282.776 4.45 1.103 2.168.327 8.124 1.254 13.235 2.059 7.639 1.203 9.759 1.235 11.91.18 4.225-2.073 6.742-6.277 6.556-10.949-.132-3.298.326-4.507 2.288-6.051 1.349-1.061 2.453-2.493 2.453-3.182 0-.689 1.115-2.3 2.477-3.58 3.12-2.932 9.523-22.47 9.523-29.061 0-3.055.863-6.286 2.502-9.37 2.958-5.561 2.947-13.333-.022-16.614-.985-1.087-1.409-1.977-.944-1.977.466 0-.027-.661-1.095-1.468-1.067-.808-2.781-1.483-3.808-1.5-1.836-.031-1.905-.813-.52-5.973.753-2.803-3.157-2.158-7.357 1.214-6.826 5.481-7.608 5.403-15.195-1.507-1.066-.971-2.528-1.822-3.25-1.891a265.69 265.69 0 0 1-4.311-.482c-4.761-.567-6.303-.559-9.5.047-1.65.313-2.454.31-1.786-.007C95.883 63.404 92.847 60 89.759 60c-1.517 0-2.809.337-2.87.75m112.844.374c.679.684 1.486.991 1.793.683.308-.308-.247-.867-1.233-1.243-1.425-.542-1.54-.428-.56.56m-133.983.538c.688.278 1.813.278 2.5 0 .688-.277.125-.504-1.25-.504s-1.937.227-1.25.504M190 63c1.939 1.253 3 1.253 3 0 0-.55-1.012-.993-2.25-.985-1.819.013-1.963.201-.75.985M60.365 66.495c-1.532 1.903-2.116 4.073-2.151 7.984-.043 4.724-.532 5.982-4.066 10.453-2.21 2.796-4.303 5.98-4.65 7.076-.61 1.921-1.608 2.408-4.238 2.069-1.83-.236-5.109 5.733-5.845 10.64-.688 4.588-1.682 5.335-3.37 2.533-.943-1.566-1.423-1.329-4.556 2.25-1.926 2.2-5.388 6.867-7.692 10.372l-4.191 6.372-2.212-2.573-2.213-2.572-1.585 3.341c-.957 2.016-2.577 3.589-4.085 3.968-1.375.345-2.389 1.182-2.255 1.86.167.845-.934 1.129-3.506.904-3.449-.302-3.75-.121-3.75 2.25 0 2.635 2.26 3.584 3.554 1.491.403-.652 3.079-.952 6.697-.75 5.77.323 6.041.231 6.399-2.163.594-3.98 1.255-5.177 2.45-4.438.782.483.709.944-.243 1.548-1.143.723-1.142.862 0 .875.793.009 1.118.638.781 1.515-.316.825-.181 1.5.3 1.5s.622.966.313 2.147c-.498 1.904-.259 2.072 2.102 1.479 3.092-.776 8.037 1.425 9.899 4.405.676 1.083 1.988 1.969 2.916 1.969 2.342 0 6.631-9.436 7.448-16.388.87-7.408 4.252-11.25 9.513-10.809 3.82.32 4.824-1.041 4.857-6.578.009-1.488.863-2.597 2.471-3.209 1.352-.514 4.998-3.414 8.102-6.445 4.842-4.727 6.461-5.671 11.39-6.641l5.746-1.13-.997-4.15c-.548-2.283-1.042-7.525-1.097-11.65-.121-8.995-.956-10.894-3.7-8.41-2.185 1.977-2.464 4.016-.651 4.748.688.277-.1.547-1.75.598-1.65.052-3.634.496-4.408.986-.844.534-2.302.484-3.64-.126-2.13-.97-3.118-2.445-5.098-7.605l-.886-2.31-2.103 2.614m68.804 13.563c.182 1.231 1.006 2.551 1.831 2.934.825.384 2.573 1.259 3.884 1.945 2.622 1.372 4.071.246 4.101-3.187.017-1.995-2.591-2.395-3.258-.5-.311.884-1.385.564-3.665-1.09l-3.225-2.34.332 2.238M223.5 80c-.34.55-.141 1 .441 1S225 80.55 225 80s-.198-1-.441-1-.719.45-1.059 1m-106.25 3.718c-1.697.609-1.583 2.94.177 3.616 2.038.782 3.979-1.767 2.335-3.067-.694-.549-1.824-.796-2.512-.549m43 .102c-2.231.316-3.144 2.706-1.28 3.347.534.183 1.096 3.332 1.25 6.998.212 5.058.702 6.929 2.03 7.759 1.46.912 1.75.742 1.75-1.023 0-1.414.469-1.935 1.417-1.571 1.725.662 2.642-1.388 1.897-4.239-.648-2.478 1.221-5.091 3.641-5.091 2.014 0 2.079 3.05.114 5.417-.801.965-.898 1.583-.248 1.583 3.056 0 5.775-9.895 3.163-11.51-.559-.346-.74-1.076-.402-1.622.565-.914-7.043-.942-13.332-.048m76.471 11.43c.589 16.612 1.104 17.042 1.2 1 .043-7.287-.307-13.25-.778-13.25-.471 0-.661 5.513-.422 12.25M42.495 85.008c-.342.554.06 1.69.893 2.523 1.355 1.355 1.624 1.315 2.529-.376.557-1.041.728-2.176.381-2.524-.964-.964-3.105-.752-3.803.377m137.208.767c-1.635 1.807-3.703 6.546-3.703 8.486 0 .621 1.575-.59 3.5-2.691 1.925-2.102 3.5-4.413 3.5-5.137 0-2.172-1.631-2.498-3.297-.658m-65.567 2.975c-.093 1.538-.769 2.25-2.136 2.25-1.1 0-2 .645-2 1.433s-.9 1.718-2 2.067c-1.1.349-2 1.504-2 2.567 0 1.063-.425 1.933-.943 1.933-.519 0-1.741 1.35-2.716 3-1.158 1.96-2.575 3-4.088 3-2.716 0-4.167 2.789-2.149 4.128.768.509 2.616 1.192 4.107 1.516 2.674.582 3.24 2.158 1.289 3.591-.55.404.492.741 2.316.75 4.085.019 7.184 1.58 7.184 3.62 0 2.377 4.007 1.288 6.223-1.692 1.058-1.422 2.178-4.484 2.489-6.803.386-2.874.975-4.06 1.851-3.724 1.941.745 4.597-4.066 4.246-7.691-.281-2.903-.651-3.223-4.051-3.505-3.226-.267-3.661-.061-3.155 1.5.449 1.389.356 1.488-.4.427-.542-.76-.915-2.865-.83-4.676.115-2.439-.153-3.038-1.032-2.309-.846.702-1.313.323-1.628-1.324l-.441-2.308-.136 2.25m31.559 1.307c-.342 1.309-.111 1.915.634 1.667 1.438-.479 2.189-3.724.861-3.724-.526 0-1.199.926-1.495 2.057M128 93.084c0 1.109 3.373 1.662 5.516.905 1.548-.548 1.161-.799-1.766-1.145-2.062-.243-3.75-.135-3.75.24M255.252 105.5c.011 2.2.216 2.982.455 1.738.239-1.244.23-3.044-.02-4s-.446.062-.435 2.262m-93.614 3c-.316.825-.139 1.5.393 1.5.533 0 .969-.675.969-1.5s-.177-1.5-.393-1.5c-.216 0-.652.675-.969 1.5m-20.568 5.536c.039 2.455.421 5.362.85 6.46.605 1.551.942.907 1.511-2.883.573-3.825.39-5.221-.85-6.46-1.441-1.442-1.575-1.187-1.511 2.883m35.18 6.505c-.687.756-1.25 2.042-1.25 2.858 0 .816-.457 1.766-1.016 2.111-.559.346-.744 1.069-.411 1.608.826 1.337 3.397-.908 4.568-3.99 1.102-2.898-.105-4.55-1.891-2.587M82.2 123.2c-1.608 1.608-1.512 2.798.398 4.908 1.495 1.652 1.225 3.892-.468 3.892-.414 0-1.714-.895-2.888-1.989-2.66-2.478-4.65-1.779-6.593 2.317-.829 1.745-3.332 5.198-5.563 7.673-5.877 6.517-5.54 7.879 2.578 10.405 1.787.557 2.555-.022 4.414-3.331 1.238-2.202 3.976-5.391 6.084-7.085 4.588-3.687 6.345-6.887 7.269-13.24.658-4.521.578-4.75-1.67-4.75-1.298 0-2.901.54-3.561 1.2m58.8 2.241c0 .857.45 1.559 1 1.559s1-.423 1-.941-.45-1.219-1-1.559c-.55-.34-1 .084-1 .941m113.531 17.852c-.428.986-.497 2.074-.155 2.417 1.016 1.015 1.835-.411 1.367-2.382-.414-1.747-.468-1.748-1.212-.035M253.5 148c-1.908.82-1.897.863.25.93 1.238.038 2.25-.38 2.25-.93s-.113-.968-.25-.93c-.137.039-1.15.457-2.25.93M174 158.5c0 .825.648 1.5 1.441 1.5 2.116 0 2.802-1.693.971-2.395-2.228-.855-2.412-.787-2.412.895m61.09 9.4c-3.309.45-4.478 1.074-4.684 2.5-.393 2.731-1.768 3.301-11.342 4.697-9.469 1.381-18.132 3.948-18.353 5.438-.079.531 2.479 1.293 5.685 1.693 5.966.745 14.245 4.127 18.477 7.548 2.361 1.908 2.363 1.934.5 4.805-1.03 1.587-2.66 3.681-3.623 4.652-.963.972-1.75 2.658-1.75 3.748 0 1.783.475 1.919 4.75 1.365 2.613-.338 5.54-1.301 6.505-2.14 1.669-1.45 1.656-1.691-.25-4.922-3.451-5.849-2.762-6.762 6.195-8.21 3.705-.599 6.141-.274 11.5 1.532l6.8 2.292.292-6.862c.267-6.277.067-7.086-2.346-9.499-1.886-1.886-2.474-3.288-2.065-4.921.516-2.055.069-2.399-4.48-3.45-2.779-.641-5.582-1.098-6.227-1.016-.646.083-3.158.42-5.584.75m-129.867 9.141c-1.253.503-3.971 1.037-6.04 1.187-4.166.301-3.853-.667-4.24 13.092-.153 5.421-.179 5.362 2.537 5.835 1.64.286 2.077-.362 2.55-3.775.646-4.67 3.347-9.38 5.378-9.38 1.587 0 4.592-4.23 4.592-6.465 0-1.712-1.386-1.856-4.777-.494M248 183c0 1.289.506 1.998 1.25 1.75.688-.229 1.25-1.017 1.25-1.75 0-.733-.562-1.521-1.25-1.75-.744-.248-1.25.461-1.25 1.75M52 205.625c0 .413 1.013 2.239 2.25 4.056 3.077 4.521 4.955 4.343 4.56-.431-.283-3.424-.593-3.777-3.56-4.063-1.788-.173-3.25.024-3.25.438m187.153 1.622c-.634.634-1.153 1.926-1.153 2.871 0 .945-.265 2.408-.588 3.252-.781 2.033-7.257 4.185-8.588 2.854-1.276-1.276-5.022-.324-4.54 1.153.202.618 1.877 1.622 3.723 2.232 1.846.61 4.304 2.298 5.462 3.75 2.285 2.865 5.034 3.224 15.281 1.993 4.93-.592 5.25-.801 5.25-3.424 0-2.095-1.116-3.709-4.461-6.449-2.453-2.011-4.733-4.516-5.067-5.568-.836-2.633-3.843-4.14-5.319-2.664m-130.57 3.781c-1.604 1.634-3.397 2.972-3.985 2.972-.588 0-3.41-1.184-6.27-2.631-8.519-4.31-8.721-3.955-7.9 13.902.652 14.196.877 15.487 3.314 19.04 3.537 5.156 7.583 8.406 12.175 9.782 3.283.984 4.646.84 9.595-1.011 7.884-2.95 14.239-7.672 15.002-11.148.839-3.817 8.414-10.568 13.35-11.897 4.682-1.261 7.136-3.365 7.136-6.117 0-2.001-1.266-2.039-14.285-.428-1.939.24-3.459-.373-5-2.017-1.554-1.656-3.548-2.452-6.682-2.668-3.867-.266-4.766-.777-6.685-3.807-2.712-4.282-5.098-7.009-6.098-6.972-.412.015-2.062 1.365-3.667 3m-40.408 10.626c.205 1.783.999 2.957 2.15 3.175 1.474.28 1.762-.198 1.5-2.483-.205-1.783-.999-2.957-2.15-3.175-1.474-.28-1.762.198-1.5 2.483M13.5 227c-.34.55-.141 1 .441 1S15 227.55 15 227s-.198-1-.441-1-.719.45-1.059 1"/><path fill="#1976D2" fill-opacity=".272" fill-rule="evenodd" d="M173 1.484c-7.753 1.545-28.519 2.742-50.321 2.901-18.109.132-18.095.124-18.283 9.022-.075 3.544-.63 5.316-2 6.384-1.843 1.437-1.84 1.457.104.737 4.117-1.525 15.6-2.293 19.281-1.29 2.046.558 5.519 1.07 7.719 1.138 3.461.107 3.962-.145 3.716-1.876-.785-5.527-.55-9.564.623-10.718 1.348-1.327 1.686-1.038 6.17 5.271l1.509 2.123 2.793-2.588c3.167-2.935 8.035-3.397 11.13-1.056 2.685 2.031 3.946 1.854 7.377-1.032 3.676-3.094 4.744-3.098 14.613-.053 4.362 1.346 8.277 2.234 8.7 1.972.423-.261 4.954-.883 10.069-1.381 8.94-.87 9.506-.804 14.619 1.726 5.602 2.773 7.128 2.344 7.166-2.014.013-1.531-1.052-1.75-8.517-1.75-9.535 0-13.817-1.343-19.117-5.997C186.474-.401 183.68-.645 173 1.484m65-.066c0 .78-.25 2.069-.555 2.864-.389 1.015.412 1.639 2.688 2.095 2.446.489 2.959.931 2.09 1.8-.634.634-2.155 1.226-3.38 1.316-3.087.228-3.497 2.315-.677 3.445 1.284.514 1.786.964 1.115.999-.67.034-.977.692-.681 1.462.295.769.056 1.696-.532 2.059-.587.363-1.068 1.455-1.068 2.427 0 1.956-3.955 6.115-5.814 6.115-.653 0-1.186.45-1.186 1 0 1.484.731 1.255 4.785-1.5 2.121-1.441 5.103-2.5 7.041-2.5 2.514 0 3.492-.501 3.881-1.989.286-1.094.842-1.789 1.236-1.546.971.6.632-7.499-.411-9.83-.774-1.731-.466-1.814 4.317-1.156l5.151.709V0h-9c-7.103 0-9 .299-9 1.418m-6.303 14.428c.552.36 1.22 1.328 1.486 2.151.385 1.198.696 1.098 1.55-.5.933-1.743.744-2.017-1.485-2.151-1.405-.084-2.103.141-1.551.5M252 15.833c0 1.408 1.126 2.056 2.592 1.493.768-.294 1.148-.938.843-1.431-.698-1.129-3.435-1.178-3.435-.062m-43.527 3.123c.325.526 1.252.703 2.059.393 2.067-.793 1.824-1.349-.591-1.349-1.132 0-1.793.43-1.468.956M218 26.031c0 1.083-.45 1.969-1 1.969s-1 .53-1 1.177c0 .648-1.463 2.429-3.25 3.96l-3.25 2.782 3.095.04c1.865.025 3.814-.754 4.905-1.959.995-1.1 2.528-2.014 3.405-2.032 1.31-.026 1.248-.294-.346-1.5-1.068-.807-1.502-1.468-.964-1.468 1.452 0 1.183-3.871-.309-4.444-.78-.299-1.286.282-1.286 1.475m30 22.536c0 .862 1.575 3.053 3.5 4.868l3.5 3.301v-2.68c0-1.81-.961-3.39-2.96-4.868-3.522-2.604-4.04-2.684-4.04-.621M103.866 68.13c-.751.49-4.266.813-7.811.717-4.317-.117-6.58.228-6.852 1.045-.224.671-1.346 2.095-2.494 3.164C85.562 74.125 85.173 75 85.846 75c.886 0 1.054 1.445.611 5.25-.39 3.342-.275 4.772.315 3.934.511-.725 1.783-1.452 2.828-1.618 1.083-.171 1.835-1.032 1.75-2.002-.096-1.079.362-1.505 1.25-1.164.77.295 1.4.026 1.4-.598s.296-.839.658-.477c.362.362 1.262.156 2-.456.738-.613 1.342-.779 1.342-.369 0 .41.629.223 1.397-.414.768-.638 1.166-2.043.883-3.123-.282-1.08-.123-2 .353-2.046.477-.046 1.929-.2 3.226-.341 1.298-.142 2.846.263 3.44.899.786.841 1.711.866 3.383.091 2.494-1.155 3.078-2.562 1.068-2.572-.687-.004-2.435-.625-3.884-1.381-1.649-.86-3.145-1.041-4-.483M63.67 73.154c-.338 1.292-.071 2.647.618 3.136.942.67.93.977-.056 1.375-1.625.658-3.617 2.662-6.817 6.857-2.027 2.658-2.341 3.748-1.52 5.282.569 1.063.807 2.161.528 2.44-.279.279.648.727 2.059.997s2.807.101 3.101-.375c.294-.476-.032-.866-.724-.866-.924 0-.963-.296-.146-1.113 1.517-1.517 3.328-.222 2.649 1.895-.45 1.404-.364 1.454.474.272C64.951 91.479 63.663 88 61.965 88c-.531 0-.965-.498-.965-1.107s.675-.848 1.5-.531c.825.316 1.5.192 1.5-.277 0-.468.9-1.087 2-1.375 1.1-.287 2-1.187 2-2 0-1.927 4.534-2.772 6.634-1.236.9.658 2.701.994 4.001.745C80.601 81.843 81 81.158 81 78.161v-3.606l-1.668 2.472c-.918 1.36-1.794 2.637-1.948 2.837-.153.2-1.488-.587-2.966-1.75C72.94 76.951 71.253 76 70.67 76c-.583 0-2.263-1.152-3.733-2.56l-2.672-2.561-.595 2.275m40.143.529c.721.289 1.584.253 1.916-.079.332-.332-.258-.568-1.312-.525-1.165.048-1.402.285-.604.604m111.648 9.381c-.319.515-.364.936-.102.936.263 0 1.131.251 1.93.557.799.307 1.687-.051 1.972-.795.593-1.545-2.882-2.184-3.8-.698m22.848.245c-.275.445-.187 3.926.195 7.735.868 8.643-.302 20.705-1.655 17.065-.489-1.316-.816-6.767-.726-12.114.09-5.347-.152-10.234-.539-10.859-1.316-2.13-4.383-1.142-6.563 2.114l-2.176 3.25.439-2.75c.461-2.887-.304-3.344-3.1-1.85-2.715 1.451-9.03 2.159-9.692 1.087-1.026-1.66-2.492-1.099-2.492.954 0 1.068-.407 2.193-.905 2.5-.514.318-.673-1.167-.368-3.441.472-3.517.294-4-1.473-4-1.105 0-2.605.718-3.333 1.596-.959 1.154-2.317 1.436-4.919 1.02-3.221-.515-3.783-.257-5.396 2.474-.991 1.677-1.622 3.228-1.403 3.447.219.218 9.488.446 20.598.504 11.648.062 20.199.499 20.199 1.033 0 .509-.338.937-.75.95-2.695.087-11.824 1.286-12.167 1.597-.229.208 1.534.379 3.917.379s4.032.301 3.664.669c-.367.368.095 1.512 1.028 2.543 1.639 1.811 1.548 1.853-2.748 1.241-2.444-.348-5.794-1.025-7.444-1.505-1.65-.48-5.475-1.227-8.5-1.66l-5.5-.788 7-.573c5.412-.444 3.808-.614-7.067-.75L192.365 95l-1.785 5.75c-.982 3.162-2.389 7.1-3.128 8.75-4.621 10.324-4.482 34.5.199 34.5.8 0 3.024 1.066 4.941 2.369 3.635 2.47 6.007 2.258 11.943-1.069 1.685-.944 3.235-.559 9 2.236 3.831 1.857 7.726 3.396 8.656 3.42.93.024 1.947.459 2.26.965.314.507 4.503.844 9.309.75l8.74-.171.316-3c.174-1.65 1.428-7.221 2.786-12.381 1.358-5.159 2.341-9.458 2.184-9.553-.157-.095-2.174-.994-4.481-1.997-5.116-2.223-8.773-5.907-7.963-8.018.689-1.795 7.953-2.15 12.057-.589 1.673.636 2.745.615 3.163-.062.606-.981 3.301-22.096 2.896-22.686-.108-.157-3.181-.309-6.827-.337-3.647-.028-6.631-.462-6.631-.964s3.15-.913 7-.913h7v-4c0-2.889-.417-4-1.5-4-.825 0-1.5-.338-1.5-.75 0-1.017-12.061-.96-12.691.059m-50.386 1.941c-.419 1.36-.286 6.75.166 6.75.682 0 2.911-4.632 2.911-6.047 0-.802-2.846-1.452-3.077-.703m-67.939 2.562c-2.574 2.084-2.018 6.199.833 6.173 1.46-.014 1.484-.153.183-1.053-1.064-.736 1.84-.949 10-.734 11.088.291 11.511.226 11.804-1.831.415-2.908-4.044-4.367-13.342-4.367-5.5 0-7.778.436-9.478 1.812m43.016.719c0 1.618 1.563 1.986 2.435.574.305-.493-.119-1.153-.941-1.469-.907-.348-1.494.003-1.494.895m28.459.536c-.363.586-.445 1.281-.183 1.543s.743-.218 1.069-1.067c.676-1.762.1-2.072-.886-.476M126.75 104.79c-2.062 4.81-3.75 9.702-3.75 10.871 0 1.169-.712 2.398-1.582 2.732-2.505.961-3.596.712-2.816-.643.396-.687-.394-.237-1.755 1-3.209 2.916-7.25 3.096-6.358.283.489-1.538.045-2.112-2.04-2.635-2.86-.718-4.669.864-3.745 3.274.784 2.042-1.492 4.184-5.823 5.482-2.134.639-3.881 1.568-3.881 2.063 0 .496-.408.649-.907.341-.498-.309-.658.391-.354 1.554.305 1.162 2.513 3.297 4.907 4.744 4.633 2.798 5.265 3.857 2.854 4.782-2.643 1.015-1.704 3.362 1.345 3.362 3.423 0 5.905 2.5 6.768 6.816.901 4.503-1.06 3.996-2.187-.566-1.12-4.533-2.982-5.024-10.577-2.79-3.903 1.149-5.963 2.448-7.619 4.807l-2.27 3.233 3.27.297c1.799.164 6.514.951 10.478 1.75 10.654 2.148 13.742 1.917 17.337-1.297 2.573-2.299 3.112-3.57 3.29-7.75.153-3.608.849-5.696 2.498-7.5 6.268-6.856 8.099-9.68 9.633-14.861.918-3.102 2.314-7.454 3.102-9.672.788-2.219 1.432-5.822 1.432-8.007 0-2.185.419-5.433.93-7.217l.93-3.243-4.68.023-4.68.023-3.75 8.744M63 100.417c0 .779-.562 1.617-1.25 1.863-.687.245-.915.805-.506 1.244.784.84 4.756-2.232 4.756-3.679 0-.465-.675-.845-1.5-.845s-1.5.638-1.5 1.417m-19.809 6.209c-2.049 4.017-1.992 5.39.226 5.359.596-.009.408-.452-.417-.985-1.331-.86-1.33-.971.009-.985 2.132-.021 3.825-3.143 2.991-5.515-.612-1.741-.975-1.467-2.809 2.126m-10.574 6.147c-.841 1.628-2.495 4.043-3.675 5.367-2.167 2.433-5.232 9.904-4.403 10.732.247.247 1.351-.368 2.455-1.366 1.59-1.44 2.006-1.514 2.006-.361 0 .8-.562 2.022-1.25 2.714-1.002 1.009-.934 1.139.34.655 2.381-.906 4.347 2.186 4.172 6.564-.085 2.129.222 4.103.681 4.387.737.455 6.11-5.616 6.129-6.927.004-.28.664-2.373 1.467-4.65.804-2.277 1.461-5.488 1.461-7.136 0-2.572-.216-2.817-1.524-1.732-.838.696-1.306 1.483-1.04 1.749.266.267-.182 1.773-.996 3.347-.814 1.575-1.438 3.194-1.385 3.599.227 1.754-2.021 1.217-3.064-.732-.661-1.234-1.746-1.907-2.568-1.592-.969.372-1.418-.161-1.408-1.672.012-1.759.209-1.914.947-.747 1.18 1.867 1.529.974 3.059-7.826 1.26-7.246.809-8.651-1.404-4.373M40.71 115c-.287 1.1-.131 2 .348 2 .48 0 1.353-.9 1.942-2 .837-1.563.76-2-.348-2-.78 0-1.654.9-1.942 2m101.448 0c0 1.375.227 1.938.504 1.25.278-.687.278-1.812 0-2.5-.277-.687-.504-.125-.504 1.25M39 119.059c0 .582.45.781 1 .441s1-.816 1-1.059-.45-.441-1-.441-1 .477-1 1.059m78.547 5.191c.266.688 1.827 2.017 3.469 2.953 2.825 1.613 2.984 1.611 2.984-.05 0-.964-.54-2.293-1.2-2.953-1.617-1.617-5.883-1.577-5.253.05m88.288-.577c-2.063.546-3.232 3.33-1.941 4.621 1.003 1.003 4.583.388 7.042-1.209 1.189-.773 1.211-1.203.127-2.509-1.312-1.581-2.134-1.723-5.228-.903m-113.756 5.995c-.043.643-.338 1.993-.655 3-.547 1.741-.518 1.744.571.044.631-.983.925-2.333.655-3-.355-.875-.514-.887-.571-.044m-17.88 7.082c-1.065 1.512-2.251 3.762-2.635 5-.384 1.238-1.499 2.25-2.476 2.25-.978 0-2.573.879-3.545 1.953-1.71 1.889-1.675 1.973 1.095 2.583 1.574.347 3.418.802 4.097 1.01.679.209 1.743-.616 2.364-1.833.622-1.217 3.441-4.639 6.266-7.604 2.824-2.965 4.604-5.095 3.954-4.734-.649.362-1.463.2-1.809-.359-1.246-2.016-5.355-1.042-7.311 1.734m15.495 1c-.638 3.249.384 4.62 2.95 3.96 1.543-.397 1.481-.498-.369-.594-1.924-.1-2.144-.522-1.625-3.116.33-1.65.371-3 .092-3-.28 0-.752 1.238-1.048 2.75m96.385 8.833c.048 1.165.285 1.402.604.605.289-.722.253-1.585-.079-1.917-.332-.332-.568.258-.525 1.312M242 176.732c-1.375.253-3.011.879-3.635 1.391-.704.578-3.85.51-8.291-.18-5.16-.8-8.024-.808-10.265-.026-1.709.595-5.178 1.09-7.708 1.098-6.545.022-8.371 1.539-2.776 2.306 2.459.337 7.006 1.772 10.103 3.189 4.704 2.152 6.823 2.528 12.852 2.283 6.62-.269 7.247-.48 7.539-2.541.274-1.924.611-2.092 2.346-1.164 1.658.888 2.291.706 3.487-1.002 2.007-2.864 4.98-2.614 7.864.664l2.421 2.75.025-2.5c.017-1.724-1.001-3.198-3.281-4.75-3.195-2.175-5.402-2.489-10.681-1.518m.055 40.993c-1.639 4.533-.38 5.944 4.145 4.647 4.466-1.281 4.663-3.665.504-6.119l-3.393-2.002-1.256 3.474m-131.095-.256c-2.095 2.095-5.926 2.443-9.669.879-1.775-.741-3.642-1.348-4.15-1.348-2.002 0-2.046 5.244-.112 13.385 1.115 4.697 1.757 9.618 1.426 10.937-.426 1.7.109 3.222 1.843 5.238 2.026 2.355 3.475 2.94 8.466 3.417 7.435.711 12.236-.384 12.236-2.79 0-.965 2.475-4.2 5.5-7.187 6.244-6.167 6.831-8 2.559-8-3.313 0-3.741-.437-4.475-4.57-.286-1.612-1.537-3.605-2.779-4.43-1.242-.825-3.678-2.738-5.413-4.25-3.686-3.212-3.537-3.177-5.432-1.281"/></svg>